<?xml version="1.0" standalone="no"?>
<!DOCTYPE svg PUBLIC "-//W3C//DTD SVG 20010904//EN"
 "http://www.w3.org/TR/2001/REC-SVG-20010904/DTD/svg10.dtd">
<svg version="1.0" xmlns="http://www.w3.org/2000/svg"
 width="1366.000000pt" height="1151.000000pt" viewBox="0 0 1366.000000 1151.000000"
 preserveAspectRatio="xMidYMid meet">

<g transform="translate(-0.000000, -151.000000) fill scale(1.100000, 1.100000)"
fill="#0c075e" stroke="none">
<path d="M631 1254 c-257 -69 -409 -343 -331 -598 11 -36 24 -67 28 -70 12 -7
299 92 389 134 113 53 155 86 151 119 -2 22 -12 29 -58 45 -48 17 -84 20 -275
20 -248 0 -207 10 90 21 274 11 405 -12 405 -69 0 -33 -48 -71 -145 -117 -90
-42 -290 -112 -442 -154 l-102 -28 29 -43 c39 -56 101 -108 172 -144 302 -150
662 54 685 390 20 280 -198 512 -477 509 -36 0 -89 -7 -119 -15z"/>
<path d="M1460 1080 c-41 -41 -24 -72 56 -103 45 -18 60 -28 62 -46 8 -53 -60
-70 -104 -26 -30 30 -34 31 -34 6 0 -48 110 -71 150 -31 26 26 26 65 0 88 -11
9 -42 24 -68 33 -49 16 -63 38 -42 64 18 22 66 18 89 -6 29 -31 47 -19 21 14
-18 22 -29 27 -66 27 -31 0 -50 -6 -64 -20z"/>
<path d="M1660 979 c0 -92 3 -120 13 -117 6 3 13 23 15 46 l3 42 43 0 c77 0
113 73 61 125 -20 21 -34 25 -80 25 l-55 0 0 -121z m118 79 c33 -33 -4 -88
-60 -88 -27 0 -28 2 -28 50 l0 50 38 0 c21 0 43 -5 50 -12z"/>
<path d="M1875 1013 c-70 -162 -67 -153 -51 -153 7 0 19 14 26 30 12 29 15 30
75 30 60 0 63 -1 75 -30 7 -16 19 -30 27 -30 8 0 13 6 10 13 -40 99 -103 227
-112 227 -7 0 -30 -39 -50 -87z m89 -40 c7 -22 4 -23 -39 -23 -34 0 -46 4 -42
13 3 6 13 32 23 56 l17 44 17 -34 c10 -19 21 -44 24 -56z"/>
<path d="M2103 1080 c-22 -13 -36 -32 -44 -60 -26 -86 27 -160 116 -160 45 0
105 32 105 55 0 20 -3 19 -47 -11 -71 -48 -153 -7 -153 76 0 59 35 95 93 95
29 0 52 -6 64 -17 22 -20 43 -24 43 -8 0 19 -65 50 -105 50 -22 0 -54 -9 -72
-20z"/>
<path d="M2330 980 l0 -120 81 0 c60 0 80 3 77 13 -3 7 -29 13 -72 15 l-67 3
3 42 3 42 53 3 c69 4 67 22 -3 22 l-55 0 0 35 0 34 67 3 c42 2 68 8 71 16 3 9
-17 12 -77 12 l-81 0 0 -120z"/>
<path d="M1450 570 l0 -120 25 0 c22 0 25 4 25 35 0 30 3 35 24 35 37 0 86 20
96 40 6 10 10 31 10 45 0 59 -41 85 -131 85 l-49 0 0 -120z m120 35 c0 -22 -4
-25 -35 -25 -31 0 -35 3 -35 25 0 22 4 25 35 25 31 0 35 -3 35 -25z"/>
<path d="M1668 680 c-1 -5 -2 -59 0 -120 l3 -110 85 0 c83 0 84 0 84 25 0 24
-3 25 -60 25 l-60 0 0 95 c0 94 0 95 -24 95 -13 0 -26 -4 -28 -10z"/>
<path d="M1936 658 c-8 -18 -30 -72 -49 -120 l-35 -88 28 0 c19 0 33 7 40 20
8 16 21 20 56 20 37 0 47 -4 51 -20 4 -14 14 -20 34 -20 16 0 29 4 29 8 0 4
-20 57 -44 117 -39 98 -47 110 -70 113 -22 3 -29 -3 -40 -30z m64 -115 c0 -7
-11 -13 -25 -13 -28 0 -30 4 -13 51 l12 34 12 -30 c7 -17 13 -36 14 -42z"/>
<path d="M2080 660 c0 -28 3 -30 35 -30 l35 0 0 -90 0 -90 30 0 30 0 0 90 0
90 35 0 c32 0 35 2 35 30 l0 30 -100 0 -100 0 0 -30z"/>
<path d="M2310 570 l0 -120 30 0 c29 0 30 2 30 46 0 45 0 46 33 44 54 -3 59
-1 55 23 -2 18 -10 23 -45 25 -35 3 -43 7 -43 23 0 16 7 19 55 19 54 0 55 0
55 30 l0 30 -85 0 -85 0 0 -120z"/>
<path d="M2559 667 c-43 -29 -66 -89 -50 -129 l10 -28 58 21 c85 31 106 53 61
62 -15 3 -9 5 14 6 20 0 40 -4 44 -11 10 -16 -20 -35 -98 -60 -78 -25 -83 -40
-28 -70 52 -28 106 -19 147 26 100 109 -36 265 -158 183z"/>
<path d="M2790 570 l0 -120 30 0 c28 0 30 2 30 40 0 22 4 40 10 40 5 0 22 -18
36 -40 21 -32 33 -40 56 -40 l29 0 -22 40 c-20 36 -21 41 -7 57 61 71 5 143
-112 143 l-50 0 0 -120z m123 48 c8 -24 -5 -38 -34 -38 -24 0 -29 4 -29 25 0
21 5 25 29 25 16 0 31 -6 34 -12z"/>
<path d="M3027 683 c-4 -3 -7 -57 -7 -120 l0 -113 30 0 c29 0 29 0 32 68 l3
67 19 -37 c11 -22 27 -38 37 -38 10 0 28 17 41 38 l23 37 3 -67 c3 -65 4 -68
27 -68 l25 0 0 120 0 120 -24 0 c-19 0 -32 -13 -59 -56 l-34 -56 -33 56 c-24
40 -40 56 -55 56 -12 0 -25 -3 -28 -7z"/>
</g>
</svg>
