<?xml version="1.0" standalone="no"?>
<!DOCTYPE svg PUBLIC "-//W3C//DTD SVG 1.0//EN" "http://www.w3.org/TR/2001/REC-SVG-20010904/DTD/svg10.dtd">
<svg xmlns="http://www.w3.org/2000/svg" xmlns:xlink="http://www.w3.org/1999/xlink" id="body_1" width="1227" height="1235">

<defs>
    <clipPath  id="1">

    <path id=""  clip-rule="evenodd" transform="matrix(1 0 0 1 0 0)"  d="M0 926L0 0L0 0L920 0L920 0L920 926L920 926L0 926z" />    </clipPath>
</defs>

<g transform="matrix(1.3333 0 0 1.3333 0 0)">
	<g clip-path="url(#1)" >
    <path id=""  transform="matrix(1 0 0 -1 0 926)"  d="M362.3 923.3999C 288.99997 914.5999 230.79999 872.4999 201.9 807.8999L201.9 807.8999L201.9 807.8999C 188.99998 778.79987 182.29999 747.0999 181.29999 710.2999L181.29999 710.2999L181.29999 710.2999C 179.99998 663.6999 187.19998 622.1999 204.69998 574.9999L204.69998 574.9999L204.69998 574.9999C 221.59999 529.3999 246.09999 488.4999 276.8 454.19992L276.8 454.19992L276.8 454.19992C 283.59998 446.69992 284.49997 445.19992 286.59998 437.79993L286.59998 437.79993L286.59998 437.79993C 292.8 416.4999 291.4 397.5999 282.59998 382.4999L282.59998 382.4999L282.59998 382.4999C 278.69998 375.8999 268.59998 366.4999 261.69998 363.0999L261.69998 363.0999L261.69998 363.0999C 258.3 361.3999 245.39998 355.9999 232.99998 351.0999L232.99998 351.0999L232.99998 351.0999C 148.79999 317.89993 80.399994 277.4999 39.999996 236.99992L39.999996 236.99992L39.999996 236.99992C 17.599998 214.59993 5.7 195.19992 1.4999999 174.19994L1.4999999 174.19994L1.4999999 174.19994C 0.099999994 167.39993 -0.099999994 161.59993 0.19999999 142.19994L0.19999999 142.19994L0.59999996 118.49993L0.59999996 118.49993L3.8999999 108.799934L3.8999999 108.799934L3.8999999 108.799934C 21.4 57.499935 94.49999 24.999937 224.99998 10.599938L224.99998 10.599938L224.99998 10.599938C 257.3 6.9999385 323.59998 2.9999387 351.09998 2.9999387L351.09998 2.9999387L358.69998 2.9999387L358.69998 2.9999387L358.19998 16.299938L358.19998 16.299938L358.19998 16.299938C 357.59998 33.199936 358.19998 36.499935 367.99997 70.09994L367.99997 70.09994L367.99997 70.09994C 372.39996 85.199936 379.39996 108.99993 383.49997 122.99993L383.49997 122.99993L383.49997 122.99993C 409.39996 211.59993 408.39996 208.89993 416.39996 220.89993L416.39996 220.89993L416.39996 220.89993C 419.39996 225.39993 440.69998 247.29993 482.39996 288.9999L482.39996 288.9999L482.39996 288.9999C 516.3 322.79993 543.6 350.69992 543.19995 351.0999L543.19995 351.0999L543.19995 351.0999C 542.8 351.4999 535.99994 354.19992 527.99994 356.9999L527.99994 356.9999L527.99994 356.9999C 511.79996 362.8999 505.19998 366.9999 500.19998 374.5999L500.19998 374.5999L500.19998 374.5999C 490.19998 389.5999 488.69998 410.0999 495.59998 436.9999L495.59998 436.9999L495.59998 436.9999C 498.29996 447.29993 498.49997 447.5999 505.19998 454.9999L505.19998 454.9999L505.19998 454.9999C 539.8 492.5999 570.3 548.3999 586.6 603.8999L586.6 603.8999L586.6 603.8999C 590.69995 617.5999 596.3 644.5999 598.69995 661.9999L598.69995 661.9999L598.69995 661.9999C 601.39996 681.2999 601.1 723.79987 598.19995 742.4999L598.19995 742.4999L598.19995 742.4999C 591.69995 784.3999 579.3 815.8999 557.89996 845.29987L557.89996 845.29987L557.89996 845.29987C 520.6 896.4999 459.09998 925.3999 388.59998 924.8999L388.59998 924.8999L388.59998 924.8999C 380.3 924.79987 368.39996 924.1999 362.3 923.3999z" stroke="none" fill="#000000" fill-rule="nonzero" />
    <path id=""  transform="matrix(1 0 0 -1 0 926)"  d="M799.99994 494.0999C 790.1 490.8999 785.69995 487.8999 773.19995 475.5999L773.19995 475.5999L760.89996 463.4999L760.89996 463.4999L823.99994 399.79993L823.99994 399.79993L823.99994 399.79993C 858.7999 364.69992 887.49994 335.9999 887.89996 335.9999L887.89996 335.9999L887.89996 335.9999C 888.2999 335.9999 894.1 341.79993 900.7999 348.9999L900.7999 348.9999L900.7999 348.9999C 914.1 363.3999 917.2999 368.5999 919.19995 379.8999L919.19995 379.8999L919.19995 379.8999C 920.7999 389.19992 919.2999 397.9999 914.6 407.3999L914.6 407.3999L914.6 407.3999C 911.39996 413.69992 907.1 418.3999 874.7999 450.9999L874.7999 450.9999L874.7999 450.9999C 848.69995 477.2999 837.1 488.2999 833.39996 490.19992L833.39996 490.19992L833.39996 490.19992C 822.69995 495.9999 810.19995 497.3999 799.99994 494.0999z" stroke="none" fill="#000000" fill-rule="nonzero" />
    <path id=""  transform="matrix(1 0 0 -1 0 926)"  d="M724.99994 431.4999C 716.99994 423.9999 710.49994 417.5999 710.49994 417.0999L710.49994 417.0999L710.49994 417.0999C 710.49994 416.69992 739.99994 386.4999 776.1 349.9999L776.1 349.9999L841.7999 283.5999L841.7999 283.5999L856.89996 297.9999L856.89996 297.9999L872.1 312.39993L872.1 312.39993L821.7999 362.9999L821.7999 362.9999L821.7999 362.9999C 794.1 390.79993 764.49994 420.5999 755.99994 429.29993L755.99994 429.29993L755.99994 429.29993C 747.49994 437.8999 740.2999 444.9999 739.99994 444.9999L739.99994 444.9999L739.99994 444.9999C 739.69995 444.9999 732.99994 438.8999 724.99994 431.4999z" stroke="none" fill="#000000" fill-rule="nonzero" />
    <path id=""  transform="matrix(1 0 0 -1 0 926)"  d="M511.09998 148.39993L511.09998 148.39993L511.09998 148.39993L515.69995 143.89993L515.69995 143.89993L540.6 141.79993L540.6 141.79993L540.6 141.79993C 554.3 140.69994 565.6 139.69994 565.6 139.59993L565.6 139.59993L565.6 139.59993C 565.69995 139.59993 566.3 128.69994 566.99994 115.49993L566.99994 115.49993L568.3 91.49993L568.3 91.49993L574.3 85.299934L574.3 85.299934L574.3 85.299934C 577.69995 81.89993 580.19995 78.89993 579.89996 78.59994L579.89996 78.59994L579.89996 78.59994C 579.69995 78.39993 573.39996 76.39993 565.99994 74.199936L565.99994 74.199936L565.99994 74.199936C 558.6 71.99993 540.69995 66.699936 526.19995 62.399937L526.19995 62.399937L499.89996 54.599937L499.89996 54.599937L490.89996 63.599934L490.89996 63.599934L481.99997 72.49993L481.99997 72.49993L486.49997 87.99993L486.49997 87.99993L486.49997 87.99993C 488.99997 96.49993 494.19998 114.59993 498.19998 128.29993L498.19998 128.29993L498.19998 128.29993C 502.09998 141.89993 505.59998 152.99992 505.89996 152.99992L505.89996 152.99992L505.89996 152.99992C 506.19998 152.99992 508.49997 150.89993 511.09998 148.39993zM581.8 287.29993L581.8 287.29993L581.8 287.29993L474.19998 179.49992L474.19998 179.49992L472.19998 172.49992L472.19998 172.49992L472.19998 172.49992C 470.99997 168.69994 468.09998 158.29993 465.49997 149.49992L465.49997 149.49992L465.49997 149.49992C 462.89996 140.69994 457.3 121.19993 452.89996 106.299934L452.89996 106.299934L452.89996 106.299934C 448.59998 91.299934 441.3 66.49993 436.89996 51.299934L436.89996 51.299934L436.89996 51.299934C 431.8 33.79994 428.8 21.799938 428.8 18.799938L428.8 18.799938L428.8 18.799938C 428.8 10.099938 435.99997 2.0999389 444.69998 1.2999389L444.69998 1.2999389L444.69998 1.2999389C 450.09998 0.7999389 447.49997 0.09993896 549.99994 30.499937L549.99994 30.499937L549.99994 30.499937C 561.8 33.999935 578.69995 38.999935 587.49994 41.499935L587.49994 41.499935L587.49994 41.499935C 596.3 44.099937 604.6 46.799934 605.99994 47.499935L605.99994 47.499935L605.99994 47.499935C 608.89996 49.099937 822.6 262.69992 821.99994 263.39993L821.99994 263.39993L821.99994 263.39993C 735.89996 349.89993 690.69995 394.9999 690.19995 394.9999L690.19995 394.9999L690.19995 394.9999C 689.8 394.9999 640.99994 346.4999 581.8 287.29993z" stroke="none" fill="#000000" fill-rule="nonzero" />
	</g>
</g>
</svg>